<?xml version="1.0" standalone="no"?>
<!DOCTYPE svg PUBLIC "-//W3C//DTD SVG 20010904//EN"
 "http://www.w3.org/TR/2001/REC-SVG-20010904/DTD/svg10.dtd">
<svg version="1.0" xmlns="http://www.w3.org/2000/svg"
 width="123.000000pt" height="123.000000pt" viewBox="0 0 123.000000 123.000000"
 preserveAspectRatio="xMidYMid meet">
<metadata>
Created by potrace 1.11, written by Peter Selinger 2001-2013
</metadata>
<g transform="translate(0.000000,123.000000) scale(0.100000,-0.100000)"
fill="#000000" stroke="none">
<path d="M272 998 l3 -203 93 -3 92 -3 0 55 c0 49 3 57 35 85 68 59 146 61
222 5 29 -22 32 -30 35 -82 l3 -57 90 0 90 0 3 203 2 202 -80 0 -80 0 0 -30
c0 -29 -1 -30 -50 -30 -49 0 -50 1 -50 30 l0 30 -75 0 -75 0 0 -30 c0 -28 -2
-30 -40 -30 -38 0 -40 2 -40 30 l0 30 -90 0 -90 0 2 -202z m108 130 c0 -14 -8
-18 -35 -18 -40 0 -50 26 -12 32 41 7 47 5 47 -14z m238 -1 c3 -13 -4 -17 -27
-17 -34 0 -44 25 -13 33 25 7 37 2 40 -16z m240 0 c3 -12 -4 -17 -22 -17 -27
0 -37 24 -13 33 19 8 32 2 35 -16z m42 3 c0 -11 -4 -20 -10 -20 -5 0 -10 9
-10 20 0 11 5 20 10 20 6 0 10 -9 10 -20z m-253 -12 c-3 -8 -6 -5 -6 6 -1 11
2 17 5 13 3 -3 4 -12 1 -19z m-330 -60 c-3 -7 -5 -2 -5 12 0 14 2 19 5 13 2
-7 2 -19 0 -25z m123 12 c0 -17 -7 -20 -45 -20 -38 0 -45 3 -45 20 0 17 7 20
45 20 38 0 45 -3 45 -20z m120 0 c0 -17 -7 -20 -50 -20 -43 0 -50 3 -50 20 0
17 7 20 50 20 43 0 50 -3 50 -20z m120 0 c0 -17 -7 -20 -50 -20 -43 0 -50 3
-50 20 0 17 7 20 50 20 43 0 50 -3 50 -20z m120 0 c0 -17 -7 -20 -50 -20 -43
0 -50 3 -50 20 0 17 7 20 50 20 43 0 50 -3 50 -20z m100 0 c0 -17 -7 -20 -40
-20 -33 0 -40 3 -40 20 0 17 7 20 40 20 33 0 40 -3 40 -20z m-520 -60 c0 -16
-7 -20 -35 -20 -28 0 -35 4 -35 20 0 16 7 20 35 20 28 0 35 -4 35 -20z m120 0
c0 -17 -7 -20 -45 -20 -38 0 -45 3 -45 20 0 17 7 20 45 20 38 0 45 -3 45 -20z
m120 10 c0 -5 -14 -10 -31 -10 -17 0 -39 -5 -50 -10 -16 -9 -19 -7 -19 10 0
17 6 20 50 20 28 0 50 -4 50 -10z m120 -10 c0 -23 -8 -24 -61 -8 -54 16 -49
28 11 28 43 0 50 -3 50 -20z m120 0 c0 -17 -7 -20 -50 -20 -43 0 -50 3 -50 20
0 17 7 20 50 20 43 0 50 -3 50 -20z m40 0 c0 -11 -4 -20 -10 -20 -5 0 -10 9
-10 20 0 11 5 20 10 20 6 0 10 -9 10 -20z m-583 -72 c-3 -7 -5 -2 -5 12 0 14
2 19 5 13 2 -7 2 -19 0 -25z m123 12 c0 -17 -7 -20 -45 -20 -38 0 -45 3 -45
20 0 17 7 20 45 20 38 0 45 -3 45 -20z m40 16 c0 -3 -4 -8 -10 -11 -5 -3 -10
-1 -10 4 0 6 5 11 10 11 6 0 10 -2 10 -4z m320 -16 c0 -11 -6 -20 -13 -20 -8
0 -22 9 -32 20 -18 20 -17 20 13 20 25 0 32 -4 32 -20z m100 0 c0 -17 -7 -20
-40 -20 -33 0 -40 3 -40 20 0 17 7 20 40 20 33 0 40 -3 40 -20z m-520 -60 c0
-16 -7 -20 -35 -20 -28 0 -35 4 -35 20 0 16 7 20 35 20 28 0 35 -4 35 -20z
m50 0 c0 -11 -4 -20 -10 -20 -5 0 -10 9 -10 20 0 11 5 20 10 20 6 0 10 -9 10
-20z m430 0 c0 -16 -7 -20 -35 -20 -28 0 -35 4 -35 20 0 16 7 20 35 20 28 0
35 -4 35 -20z m40 0 c0 -11 -4 -20 -10 -20 -5 0 -10 9 -10 20 0 11 5 20 10 20
6 0 10 -9 10 -20z m-470 -50 c0 -5 -18 -10 -40 -10 -22 0 -40 5 -40 10 0 6 18
10 40 10 22 0 40 -4 40 -10z m470 0 c0 -5 -18 -10 -40 -10 -22 0 -40 5 -40 10
0 6 18 10 40 10 22 0 40 -4 40 -10z"/>
<path d="M235 700 c0 -68 1 -70 25 -70 24 0 25 2 25 70 0 68 -1 70 -25 70 -24
0 -25 -2 -25 -70z"/>
<path d="M408 758 c7 -7 12 -33 12 -58 0 -25 -5 -51 -12 -58 -9 -9 -6 -12 17
-12 23 0 26 3 17 12 -11 11 -18 78 -8 78 3 0 25 -21 50 -47 l46 -48 0 61 c0
33 5 65 12 72 9 9 6 12 -17 12 -23 0 -26 -3 -17 -12 7 -7 12 -26 12 -42 l-1
-31 -37 43 c-25 28 -45 42 -61 42 -20 0 -22 -3 -13 -12z"/>
<path d="M672 758 c-19 -19 -14 -37 19 -68 37 -33 31 -60 -7 -35 -23 15 -24
14 -24 -5 0 -16 7 -20 33 -20 63 0 76 43 26 85 -25 20 -29 29 -20 38 10 9 16
8 27 -7 14 -19 14 -19 14 2 0 17 -6 22 -28 22 -15 0 -33 -5 -40 -12z"/>
<path d="M885 750 c-44 -49 -8 -120 61 -120 36 0 38 2 48 43 6 24 4 27 -20 27
-22 0 -25 -4 -21 -21 7 -28 -22 -38 -39 -14 -19 26 -17 49 5 76 18 22 19 22
45 6 25 -17 26 -17 26 3 0 17 -7 20 -43 20 -31 0 -49 -6 -62 -20z"/>
<path d="M270 466 l0 -123 48 -44 c97 -91 182 -124 306 -117 98 5 182 41 264
114 l53 46 -3 122 -3 121 -87 3 -88 3 0 -74 c0 -63 -3 -76 -22 -94 -78 -71
-188 -71 -265 0 -20 18 -23 31 -23 94 l0 73 -90 0 -90 0 0 -124z m130 69 c0
-11 -12 -15 -45 -15 -33 0 -45 4 -45 15 0 11 12 15 45 15 33 0 45 -4 45 -15z
m470 0 c0 -11 -11 -15 -40 -15 -29 0 -40 4 -40 15 0 11 11 15 40 15 29 0 40
-4 40 -15z m-530 -60 c0 -8 -9 -15 -20 -15 -11 0 -20 7 -20 15 0 8 9 15 20 15
11 0 20 -7 20 -15z m80 0 c0 -10 -10 -15 -30 -15 -20 0 -30 5 -30 15 0 10 10
15 30 15 20 0 30 -5 30 -15z m390 0 c0 -8 -4 -15 -10 -15 -5 0 -10 7 -10 15 0
8 5 15 10 15 6 0 10 -7 10 -15z m90 0 c0 -10 -10 -15 -30 -15 -20 0 -30 5 -30
15 0 10 10 15 30 15 20 0 30 -5 30 -15z m-500 -60 c0 -11 -12 -15 -45 -15 -33
0 -45 4 -45 15 0 11 12 15 45 15 33 0 45 -4 45 -15z m470 0 c0 -11 -12 -15
-45 -15 -35 0 -43 3 -39 15 4 10 20 15 45 15 28 0 39 -4 39 -15z m-530 -55 c0
-11 -4 -20 -9 -20 -13 0 -32 26 -24 33 13 14 33 6 33 -13z m120 0 c0 -17 -7
-20 -50 -20 -35 0 -50 4 -50 13 0 22 11 27 57 27 36 0 43 -3 43 -20z m350 0
c0 -17 -7 -20 -45 -20 -25 0 -45 4 -45 10 0 14 32 29 63 30 20 0 27 -5 27 -20z
m88 3 c-2 -11 -14 -19 -31 -21 -22 -3 -27 1 -27 17 0 17 6 21 31 21 24 0 30
-4 27 -17z m-378 -19 c0 -2 -9 -4 -20 -4 -11 0 -20 4 -20 9 0 5 9 7 20 4 11
-3 20 -7 20 -9z m-120 -44 c0 -11 -4 -20 -8 -20 -5 0 -17 9 -27 20 -18 20 -17
20 8 20 20 0 27 -5 27 -20z m120 0 c0 -17 -7 -20 -50 -20 -43 0 -50 3 -50 20
0 17 7 20 50 20 43 0 50 -3 50 -20z m120 0 c0 -17 -7 -20 -50 -20 -43 0 -50 3
-50 20 0 17 7 20 50 20 43 0 50 -3 50 -20z m120 0 c0 -17 -7 -20 -50 -20 -43
0 -50 3 -50 20 0 17 7 20 50 20 43 0 50 -3 50 -20z m81 0 c-31 -26 -61 -26
-61 0 0 17 7 20 43 20 l42 -1 -24 -19z m-381 -50 c0 -5 -7 -7 -15 -4 -8 4 -15
8 -15 10 0 2 7 4 15 4 8 0 15 -4 15 -10z m120 -10 c0 -15 -7 -20 -27 -20 -43
0 -73 11 -73 26 0 10 14 14 50 14 43 0 50 -3 50 -20z m118 3 c-2 -14 -15 -19
-51 -21 -42 -3 -47 -1 -47 17 0 18 6 21 51 21 43 0 50 -3 47 -17z m62 7 c-20
-13 -40 -13 -40 0 0 6 12 10 28 10 21 0 24 -2 12 -10z"/>
<path d="M982 310 c-43 -41 -17 -110 42 -110 41 0 66 26 66 68 0 56 -66 81
-108 42z m71 -32 c23 -31 17 -58 -13 -58 -27 0 -64 58 -48 77 16 19 38 12 61
-19z"/>
<path d="M147 302 c-18 -19 -22 -59 -9 -78 8 -13 46 -34 61 -34 21 0 11 19
-11 22 -30 4 -36 43 -12 69 26 29 58 21 62 -14 3 -26 5 -27 16 -11 11 14 10
21 -7 41 -25 28 -77 31 -100 5z"/>
<path d="M305 195 c-22 -19 -46 -34 -52 -35 -17 0 -17 -17 0 -23 6 -2 17 3 22
10 16 22 48 5 41 -21 -3 -14 1 -26 13 -33 17 -11 19 -7 25 40 8 69 8 97 -1 97
-5 0 -26 -16 -48 -35z m25 -15 c0 -5 -5 -10 -11 -10 -5 0 -7 5 -4 10 3 6 8 10
11 10 2 0 4 -4 4 -10z"/>
<path d="M843 217 c-22 -10 -31 -27 -15 -27 12 0 53 -76 45 -84 -15 -14 22 -5
53 15 21 12 31 25 27 34 -4 12 -9 10 -22 -6 l-17 -21 -18 27 c-10 16 -21 38
-25 50 -5 19 -9 21 -28 12z"/>
<path d="M728 168 c-37 -10 -47 -21 -29 -32 9 -6 26 -73 22 -93 -1 -9 11 -8
44 3 25 9 45 22 45 30 0 17 -17 19 -22 2 -5 -14 -38 -4 -38 12 0 5 9 10 20 10
22 0 25 7 10 30 -6 10 -10 11 -10 3 0 -7 -7 -13 -16 -13 -9 0 -14 7 -12 18 2
9 11 16 21 16 9 -1 17 4 17 12 0 16 -1 16 -52 2z"/>
<path d="M442 158 c-16 -16 -15 -39 3 -62 8 -11 15 -23 15 -28 0 -14 -22 -8
-36 10 -12 16 -13 15 -14 -5 0 -24 29 -38 60 -28 24 8 26 43 5 71 -18 24 -19
34 -1 34 8 0 16 -8 19 -17 4 -17 4 -17 12 1 13 30 -37 50 -63 24z"/>
<path d="M540 128 c0 -17 3 -19 12 -10 23 23 30 12 26 -43 -3 -53 -2 -55 22
-55 24 0 25 2 22 55 -4 55 3 66 26 43 9 -9 12 -7 12 10 0 20 -5 22 -60 22 -55
0 -60 -2 -60 -22z"/>
</g>
</svg>
